<svg xmlns="http://www.w3.org/2000/svg" viewBox="0 0 512 512">
  <!-- Fundo: Círculo Verde Esmeralda -->
  <circle cx="256" cy="256" r="256" fill="#10b981"/>
  
  <!-- Símbolo: Coração com Batimento (Estilizado em Branco) -->
  <path fill="white" d="M256 448l-30.164-27.211C118.718 322.442 48 258.61 48 179.095 48 114.221 97.918 64 162.4 64c36.399 0 70.717 16.742 93.6 43.947C278.882 80.742 313.199 64 349.6 64 414.082 64 464 114.221 464 179.095c0 79.516-70.719 143.348-177.836 241.694L256 448z"/>
  <path fill="#10b981" d="M363.4 189.6h-59.2l-26.6 67.4-44.4-124.6-32.8 77.8H148.6v23h68.4l16.8-40.4 46.4 130.6 44.2-111.4 14.8 37.4h68.4v-23z" transform="translate(-22 -20) scale(1.1)"/>
</svg>